{
    "asset" : {
        "generator" : "Khronos glTF Blender I/O v1.8.19",
        "version" : "2.0"
    },
    "scene" : 0,
    "scenes" : [
        {
            "name" : "Scene",
            "nodes" : [
                0
            ]
        }
    ],
    "nodes" : [
        {
            "mesh" : 0,
            "name" : "Sphere.001",
            "scale" : [
                0.10000000149011612,
                0.10000000149011612,
                0.10000000149011612
            ],
            "translation" : [
                0,
                2.155665397644043,
                0
            ]
        }
    ],
    "materials" : [
        {
            "doubleSided" : true,
            "name" : "Material.001",
            "pbrMetallicRoughness" : {
                "baseColorFactor" : [
                    0.8939767479896545,
                    0.8939767479896545,
                    0.8939767479896545,
                    1
                ],
                "metallicFactor" : 0,
                "roughnessFactor" : 0.9678899049758911
            }
        },
        {
            "doubleSided" : true,
            "name" : "Material.002",
            "pbrMetallicRoughness" : {
                "baseColorFactor" : [
                    0.8490694761276245,
                    0.8490694761276245,
                    0.8490694761276245,
                    1
                ],
                "metallicFactor" : 0
            }
        },
        {
            "doubleSided" : true,
            "name" : "Material.003",
            "pbrMetallicRoughness" : {
                "baseColorFactor" : [
                    0.8713542819023132,
                    0.8713542819023132,
                    0.8713542819023132,
                    1
                ],
                "metallicFactor" : 0,
                "roughnessFactor" : 0.5
            }
        },
        {
            "doubleSided" : true,
            "name" : "Material.012",
            "pbrMetallicRoughness" : {
                "baseColorFactor" : [
                    0.014697686769068241,
                    0.016067342832684517,
                    0.01564335636794567,
                    1
                ],
                "metallicFactor" : 0,
                "roughnessFactor" : 0.5
            }
        },
        {
            "doubleSided" : true,
            "name" : "Material.013",
            "pbrMetallicRoughness" : {
                "baseColorFactor" : [
                    0.8000000715255737,
                    0.09977824985980988,
                    0.013128329068422318,
                    1
                ],
                "metallicFactor" : 0,
                "roughnessFactor" : 0.5
            }
        },
        {
            "doubleSided" : true,
            "name" : "Material.011",
            "pbrMetallicRoughness" : {
                "baseColorFactor" : [
                    0.013967586681246758,
                    0.013967586681246758,
                    0.013967586681246758,
                    1
                ],
                "metallicFactor" : 0,
                "roughnessFactor" : 0.5
            }
        },
        {
            "doubleSided" : true,
            "name" : "Material.009",
            "pbrMetallicRoughness" : {
                "baseColorFactor" : [
                    0.5629593133926392,
                    0.11129523813724518,
                    0.02232910878956318,
                    1
                ],
                "metallicFactor" : 0,
                "roughnessFactor" : 0.5
            }
        },
        {
            "doubleSided" : true,
            "name" : "Material.014",
            "pbrMetallicRoughness" : {
                "baseColorFactor" : [
                    0.012037276290357113,
                    0.012037276290357113,
                    0.012037276290357113,
                    1
                ],
                "metallicFactor" : 0,
                "roughnessFactor" : 0.5
            }
        }
    ],
    "meshes" : [
        {
            "name" : "Sphere.002",
            "primitives" : [
                {
                    "attributes" : {
                        "POSITION" : 0,
                        "NORMAL" : 1,
                        "TEXCOORD_0" : 2
                    },
                    "indices" : 3,
                    "material" : 0
                },
                {
                    "attributes" : {
                        "POSITION" : 4,
                        "NORMAL" : 5,
                        "TEXCOORD_0" : 6
                    },
                    "indices" : 7,
                    "material" : 1
                },
                {
                    "attributes" : {
                        "POSITION" : 8,
                        "NORMAL" : 9,
                        "TEXCOORD_0" : 10
                    },
                    "indices" : 11,
                    "material" : 2
                },
                {
                    "attributes" : {
                        "POSITION" : 12,
                        "NORMAL" : 13,
                        "TEXCOORD_0" : 14
                    },
                    "indices" : 15,
                    "material" : 3
                },
                {
                    "attributes" : {
                        "POSITION" : 16,
                        "NORMAL" : 17,
                        "TEXCOORD_0" : 18
                    },
                    "indices" : 19,
                    "material" : 4
                },
                {
                    "attributes" : {
                        "POSITION" : 20,
                        "NORMAL" : 21,
                        "TEXCOORD_0" : 22
                    },
                    "indices" : 23,
                    "material" : 5
                },
                {
                    "attributes" : {
                        "POSITION" : 24,
                        "NORMAL" : 25,
                        "TEXCOORD_0" : 26
                    },
                    "indices" : 27,
                    "material" : 6
                },
                {
                    "attributes" : {
                        "POSITION" : 28,
                        "NORMAL" : 29,
                        "TEXCOORD_0" : 30
                    },
                    "indices" : 31,
                    "material" : 7
                }
            ]
        }
    ],
    "accessors" : [
        {
            "bufferView" : 0,
            "componentType" : 5126,
            "count" : 1984,
            "max" : [
                1.8999996185302734,
                1.899999976158142,
                1.8999992609024048
            ],
            "min" : [
                -1.8999987840652466,
                -1.899999976158142,
                -1.899999976158142
            ],
            "type" : "VEC3"
        },
        {
            "bufferView" : 1,
            "componentType" : 5126,
            "count" : 1984,
            "type" : "VEC3"
        },
        {
            "bufferView" : 2,
            "componentType" : 5126,
            "count" : 1984,
            "type" : "VEC2"
        },
        {
            "bufferView" : 3,
            "componentType" : 5123,
            "count" : 2880,
            "type" : "SCALAR"
        },
        {
            "bufferView" : 4,
            "componentType" : 5126,
            "count" : 1984,
            "max" : [
                2.404801845550537,
                -0.323591947555542,
                2.404801368713379
            ],
            "min" : [
                -2.4048008918762207,
                -5.133196830749512,
                -2.4048023223876953
            ],
            "type" : "VEC3"
        },
        {
            "bufferView" : 5,
            "componentType" : 5126,
            "count" : 1984,
            "type" : "VEC3"
        },
        {
            "bufferView" : 6,
            "componentType" : 5126,
            "count" : 1984,
            "type" : "VEC2"
        },
        {
            "bufferView" : 7,
            "componentType" : 5123,
            "count" : 2880,
            "type" : "SCALAR"
        },
        {
            "bufferView" : 8,
            "componentType" : 5126,
            "count" : 1984,
            "max" : [
                1.2132606506347656,
                3.5282623767852783,
                1.1925907135009766
            ],
            "min" : [
                -1.1719207763671875,
                1.1430799961090088,
                -1.1925911903381348
            ],
            "type" : "VEC3"
        },
        {
            "bufferView" : 9,
            "componentType" : 5126,
            "count" : 1984,
            "type" : "VEC3"
        },
        {
            "bufferView" : 10,
            "componentType" : 5126,
            "count" : 1984,
            "type" : "VEC2"
        },
        {
            "bufferView" : 11,
            "componentType" : 5123,
            "count" : 2880,
            "type" : "SCALAR"
        },
        {
            "bufferView" : 12,
            "componentType" : 5126,
            "count" : 384,
            "max" : [
                1.4532380104064941,
                5.337738990783691,
                1.3815984725952148
            ],
            "min" : [
                -1.3593783378601074,
                2.8437612056732178,
                -1.3815984725952148
            ],
            "type" : "VEC3"
        },
        {
            "bufferView" : 13,
            "componentType" : 5126,
            "count" : 384,
            "type" : "VEC3"
        },
        {
            "bufferView" : 14,
            "componentType" : 5126,
            "count" : 384,
            "type" : "VEC2"
        },
        {
            "bufferView" : 15,
            "componentType" : 5123,
            "count" : 744,
            "type" : "SCALAR"
        },
        {
            "bufferView" : 16,
            "componentType" : 5126,
            "count" : 128,
            "max" : [
                0.38357609510421753,
                2.61432147026062,
                2.2139177322387695
            ],
            "min" : [
                -0.36296558380126953,
                1.9702959060668945,
                0.43385010957717896
            ],
            "type" : "VEC3"
        },
        {
            "bufferView" : 17,
            "componentType" : 5126,
            "count" : 128,
            "type" : "VEC3"
        },
        {
            "bufferView" : 18,
            "componentType" : 5126,
            "count" : 128,
            "type" : "VEC2"
        },
        {
            "bufferView" : 19,
            "componentType" : 5123,
            "count" : 186,
            "type" : "SCALAR"
        },
        {
            "bufferView" : 20,
            "componentType" : 5126,
            "count" : 15872,
            "max" : [
                0.7541235089302063,
                2.111550807952881,
                2.0145833492279053
            ],
            "min" : [
                -0.5474558472633362,
                -0.36472177505493164,
                0.8012212514877319
            ],
            "type" : "VEC3"
        },
        {
            "bufferView" : 21,
            "componentType" : 5126,
            "count" : 15872,
            "type" : "VEC3"
        },
        {
            "bufferView" : 22,
            "componentType" : 5126,
            "count" : 15872,
            "type" : "VEC2"
        },
        {
            "bufferView" : 23,
            "componentType" : 5123,
            "count" : 23040,
            "type" : "SCALAR"
        },
        {
            "bufferView" : 24,
            "componentType" : 5126,
            "count" : 144,
            "max" : [
                3.721386671066284,
                1.1928386688232422,
                0.07299328595399857
            ],
            "min" : [
                -3.8987882137298584,
                0.08429549634456635,
                -0.08993900567293167
            ],
            "type" : "VEC3"
        },
        {
            "bufferView" : 25,
            "componentType" : 5126,
            "count" : 144,
            "type" : "VEC3"
        },
        {
            "bufferView" : 26,
            "componentType" : 5126,
            "count" : 144,
            "type" : "VEC2"
        },
        {
            "bufferView" : 27,
            "componentType" : 5123,
            "count" : 216,
            "type" : "SCALAR"
        },
        {
            "bufferView" : 28,
            "componentType" : 5126,
            "count" : 480,
            "max" : [
                0.9635681509971619,
                2.7349135875701904,
                1.2018389701843262
            ],
            "min" : [
                -1.0310947895050049,
                2.238154172897339,
                -0.31181392073631287
            ],
            "type" : "VEC3"
        },
        {
            "bufferView" : 29,
            "componentType" : 5126,
            "count" : 480,
            "type" : "VEC3"
        },
        {
            "bufferView" : 30,
            "componentType" : 5126,
            "count" : 480,
            "type" : "VEC2"
        },
        {
            "bufferView" : 31,
            "componentType" : 5123,
            "count" : 888,
            "type" : "SCALAR"
        }
    ],
    "bufferViews" : [
        {
            "buffer" : 0,
            "byteLength" : 23808,
            "byteOffset" : 0
        },
        {
            "buffer" : 0,
            "byteLength" : 23808,
            "byteOffset" : 23808
        },
        {
            "buffer" : 0,
            "byteLength" : 15872,
            "byteOffset" : 47616
        },
        {
            "buffer" : 0,
            "byteLength" : 5760,
            "byteOffset" : 63488
        },
        {
            "buffer" : 0,
            "byteLength" : 23808,
            "byteOffset" : 69248
        },
        {
            "buffer" : 0,
            "byteLength" : 23808,
            "byteOffset" : 93056
        },
        {
            "buffer" : 0,
            "byteLength" : 15872,
            "byteOffset" : 116864
        },
        {
            "buffer" : 0,
            "byteLength" : 5760,
            "byteOffset" : 132736
        },
        {
            "buffer" : 0,
            "byteLength" : 23808,
            "byteOffset" : 138496
        },
        {
            "buffer" : 0,
            "byteLength" : 23808,
            "byteOffset" : 162304
        },
        {
            "buffer" : 0,
            "byteLength" : 15872,
            "byteOffset" : 186112
        },
        {
            "buffer" : 0,
            "byteLength" : 5760,
            "byteOffset" : 201984
        },
        {
            "buffer" : 0,
            "byteLength" : 4608,
            "byteOffset" : 207744
        },
        {
            "buffer" : 0,
            "byteLength" : 4608,
            "byteOffset" : 212352
        },
        {
            "buffer" : 0,
            "byteLength" : 3072,
            "byteOffset" : 216960
        },
        {
            "buffer" : 0,
            "byteLength" : 1488,
            "byteOffset" : 220032
        },
        {
            "buffer" : 0,
            "byteLength" : 1536,
            "byteOffset" : 221520
        },
        {
            "buffer" : 0,
            "byteLength" : 1536,
            "byteOffset" : 223056
        },
        {
            "buffer" : 0,
            "byteLength" : 1024,
            "byteOffset" : 224592
        },
        {
            "buffer" : 0,
            "byteLength" : 372,
            "byteOffset" : 225616
        },
        {
            "buffer" : 0,
            "byteLength" : 190464,
            "byteOffset" : 225988
        },
        {
            "buffer" : 0,
            "byteLength" : 190464,
            "byteOffset" : 416452
        },
        {
            "buffer" : 0,
            "byteLength" : 126976,
            "byteOffset" : 606916
        },
        {
            "buffer" : 0,
            "byteLength" : 46080,
            "byteOffset" : 733892
        },
        {
            "buffer" : 0,
            "byteLength" : 1728,
            "byteOffset" : 779972
        },
        {
            "buffer" : 0,
            "byteLength" : 1728,
            "byteOffset" : 781700
        },
        {
            "buffer" : 0,
            "byteLength" : 1152,
            "byteOffset" : 783428
        },
        {
            "buffer" : 0,
            "byteLength" : 432,
            "byteOffset" : 784580
        },
        {
            "buffer" : 0,
            "byteLength" : 5760,
            "byteOffset" : 785012
        },
        {
            "buffer" : 0,
            "byteLength" : 5760,
            "byteOffset" : 790772
        },
        {
            "buffer" : 0,
            "byteLength" : 3840,
            "byteOffset" : 796532
        },
        {
            "buffer" : 0,
            "byteLength" : 1776,
            "byteOffset" : 800372
        }
    ],
    "buffers" : [
        {
            "byteLength" : 802148,
            "uri" : "data:application/octet-stream;base64,"
        }
    ]
}
